<svg width="167" height="42" viewBox="0 0 167 42" fill="none" xmlns="http://www.w3.org/2000/svg">
<path d="M2.80543 11.5897H18.9458V16.1137L12.8613 16.588C3.06048 17.3176 0 19.908 0 27.2047V28.6641C0 33.9907 3.7163 37.2013 9.47289 37.2013C13.9907 37.2013 16.614 36.1432 19.8202 32.8597H20.3668V36.3256H26.852V4.47534H2.80543V11.5897ZM18.9458 26.9493C16.942 28.9559 13.9543 30.2693 11.4768 30.2693C8.81712 30.2693 7.68762 29.2843 7.76049 27.0587C7.83336 23.9942 8.96279 23.2645 14.1001 22.7902L18.9822 22.3159V26.9493H18.9458Z" fill="#B8B8D2"/>
<path fill-rule="evenodd" clip-rule="evenodd" d="M40.7097 9.48456H53.2347V15.9282H60.0833V41.0875H52.0994V16.5798H40.7097V41.0875H32.7258V0H40.7097V9.48456ZM157.318 22.2271L152.483 21.7564C149.81 21.503 149.15 20.8153 149.15 18.7156C149.15 16.3264 150.103 15.7472 153.839 15.7472C157.171 15.7472 158.123 16.2902 158.599 18.5346H166.107C165.924 10.9687 163.543 9.05014 154.241 9.05014C144.06 9.05014 141.497 10.9687 141.497 18.7156C141.497 25.8109 143.364 27.7295 150.945 28.4535L154.9 28.8156C158.453 29.1413 159.332 29.793 159.332 31.9287C159.332 34.499 158.27 35.1868 153.912 35.1868C150.103 35.1868 149.077 34.6077 148.894 32.146H141.313C141.497 39.9653 143.913 41.9563 153.582 41.9563C164.313 41.9563 166.986 39.8205 166.986 31.2047C166.986 24.7973 165.045 22.9511 157.318 22.2271ZM116.263 22.8063C116.263 12.5977 112.71 9.01389 102.529 9.01389C92.4582 9.01389 88.5395 13.6475 88.5395 25.1955C88.5395 37.7932 92.0185 41.9563 103.299 41.9563C111.392 41.9563 114.835 39.4946 115.97 32.6166H108.279C107.4 34.7524 106.485 35.2231 103.189 35.2231C98.2448 35.2231 96.9626 33.8474 96.6698 27.9468H115.787C116.08 26.2091 116.226 24.5077 116.263 22.8063ZM96.7067 21.684C96.7797 17.2314 98.5737 15.6024 102.859 15.6024C106.961 15.6024 108.609 17.2676 108.756 21.684H96.7067ZM120.914 10.8963V41.1237H128.898V16.2902H138.493V9.52072H128.898V8.65189C128.971 6.80568 129.448 6.26267 130.986 6.26267H139.702V0.0362027H130.326C123.917 2.20695e-06 120.914 1.95483 120.914 10.8963ZM73.8902 41.0875H65.9063V9.48456H85.7561V16.9056H73.8902V41.0875Z" fill="#B8B8D2"/>
</svg>
