<svg width="193" height="42" viewBox="0 0 193 42" fill="none" xmlns="http://www.w3.org/2000/svg">
<path d="M77.8245 15.7028H84.154C83.0982 8.97308 77.2715 4.28564 69.6888 4.28564C60.7168 4.28564 53.9844 10.882 53.9844 21.9295C53.9844 32.7797 60.414 39.5094 69.8722 39.5094C78.3607 39.5094 84.4374 34.0495 84.4374 25.211V21.0932H70.5252V25.9473H78.4274C78.3274 30.8375 75.0626 33.9328 69.9055 33.9328C64.165 33.9328 60.2306 29.6316 60.2306 21.8628C60.2306 14.144 64.2317 9.85944 69.7722 9.85944C73.9067 9.85944 76.7353 12.0684 77.8245 15.7028Z" fill="#B8B8D2"/>
<path d="M88.6229 39.0396H94.6829V13.338H88.6229V39.0396ZM91.6793 9.25346C93.6049 9.25346 95.1775 7.77805 95.1775 5.97198C95.1775 4.16592 93.6049 2.67383 91.6793 2.67383C89.7538 2.67383 88.1644 4.14647 88.1644 5.97198C88.1644 7.7975 89.726 9.25346 91.6682 9.25346H91.6793Z" fill="#B8B8D2"/>
<path d="M112.828 13.338H107.755V7.16406H101.695V13.338H98.0465V18.0255H101.695V32.3239C101.661 37.1613 105.179 39.5481 109.73 39.4064C110.943 39.3825 112.145 39.1791 113.298 38.8035L112.276 34.0632C111.696 34.2136 111.101 34.293 110.503 34.2994C108.977 34.2994 107.755 33.7632 107.755 31.318V18.0116H112.828V13.338Z" fill="#B8B8D2"/>
<path d="M117.519 39.0396H138.831V33.8326H123.732V4.7522H117.519V39.0396Z" fill="#B8B8D2"/>
<path d="M150.439 39.5593C154.474 39.5593 156.883 37.6671 157.989 35.5082H158.189V39.0397H164.024V21.8293C164.024 15.033 158.483 12.9907 153.576 12.9907C148.169 12.9907 144.018 15.3997 142.679 20.0872L148.339 20.893C148.939 19.1341 150.648 17.6281 153.618 17.6281C156.433 17.6281 157.972 19.0674 157.972 21.5959V21.696C157.972 23.4353 156.146 23.5215 151.609 24.0049C146.622 24.5412 141.851 26.0305 141.851 31.8238C141.834 36.8808 145.532 39.5593 150.439 39.5593ZM152.432 35.1136C149.903 35.1136 148.094 33.9578 148.094 31.7321C148.094 29.4037 150.12 28.434 152.818 28.0478C154.41 27.831 157.591 27.4281 158.375 26.7946V29.8233C158.392 32.6768 156.08 35.1053 152.432 35.1053V35.1136Z" fill="#B8B8D2"/>
<path d="M168.486 39.0396H174.446V34.9885H174.796C175.752 36.864 177.744 39.4925 182.165 39.4925C188.225 39.4925 192.762 34.6856 192.762 26.2166C192.762 17.6447 188.091 12.9906 182.148 12.9906C177.611 12.9906 175.718 15.7192 174.796 17.578H174.54V4.7522H168.486V39.0396ZM174.429 26.1833C174.429 21.1818 176.571 17.9615 180.473 17.9615C184.507 17.9615 186.585 21.393 186.585 26.1833C186.585 30.9735 184.476 34.5189 180.473 34.5189C176.605 34.5189 174.429 31.1707 174.429 26.1833Z" fill="#B8B8D2"/>
<path d="M42.559 16.4973L42.5007 16.3417L36.6101 0.976278C36.4909 0.674573 36.2786 0.418637 36.0044 0.245516C35.7996 0.11447 35.5671 0.0332055 35.3253 0.00823459C35.0836 -0.0167383 34.8393 0.0152783 34.6121 0.101717C34.3851 0.188158 34.1811 0.326614 34.0172 0.505992C33.8532 0.685368 33.7335 0.900676 33.6676 1.13466L29.6915 13.3075H13.5897L9.61358 1.13466C9.54725 0.901026 9.42727 0.686123 9.26317 0.507089C9.09907 0.328056 8.8954 0.189844 8.66839 0.103475C8.44141 0.0171065 8.1974 -0.0150286 7.95577 0.00963221C7.71418 0.0342947 7.48167 0.115068 7.2768 0.245516C7.00248 0.418637 6.79031 0.674573 6.67108 0.976278L0.783313 16.3445L0.722184 16.4973C-0.125483 18.7127 -0.229913 21.1436 0.424639 23.4235C1.07919 25.7034 2.45724 27.7088 4.351 29.137L4.37323 29.1536L4.42322 29.1925L13.3841 35.9083L17.8298 39.2676L20.5306 41.3098C20.8474 41.5494 21.2337 41.6788 21.6309 41.6788C22.028 41.6788 22.4143 41.5494 22.7312 41.3098L25.4319 39.2676L29.8777 35.9083L38.9024 29.1536L38.9274 29.1342C40.821 27.7066 42.1992 25.7018 42.8544 23.4225C43.5093 21.1431 43.4057 18.7126 42.559 16.4973Z" fill="#B8B8D2"/>
<path d="M42.5589 16.4974L42.5006 16.3418C39.6306 16.9307 36.9262 18.1471 34.5817 19.9039L21.6475 29.6844L29.8831 35.9084L38.9079 29.1537L38.9329 29.1343C40.8257 27.7058 42.2027 25.7008 42.8568 23.4215C43.5106 21.1422 43.4061 18.7121 42.5589 16.4974Z" fill="#B8B8D2"/>
<path d="M13.3839 35.9083L17.8296 39.2676L20.5304 41.3098C20.8473 41.5493 21.2335 41.6788 21.6307 41.6788C22.0278 41.6788 22.4141 41.5493 22.731 41.3098L25.4318 39.2676L29.8775 35.9083L21.6418 29.6843L13.3839 35.9083Z" fill="#B8B8D2"/>
<path d="M8.69943 19.9038C6.3556 18.1479 3.65228 16.9325 0.783313 16.3445L0.722184 16.4973C-0.125483 18.7127 -0.229913 21.1436 0.424639 23.4235C1.07919 25.7034 2.45724 27.7087 4.351 29.1369L4.37323 29.1536L4.42322 29.1925L13.3841 35.9083L21.6253 29.6843L8.69943 19.9038Z" fill="#B8B8D2"/>
</svg>
