<svg width="144" height="41" viewBox="0 0 144 41" fill="none" xmlns="http://www.w3.org/2000/svg">
<path d="M15.5374 6.73462V18.2049H4.99957V6.73462H0V34.1158H5.00092V23.0177H15.536V34.1158H20.5383V6.73462H15.5374ZM36.5453 25.2658C36.5453 26.3633 36.1093 27.4158 35.3333 28.1919C34.5572 28.9679 33.5047 29.4039 32.4072 29.4039C31.3097 29.4039 30.2571 28.9679 29.4811 28.1919C28.705 27.4158 28.2691 26.3633 28.2691 25.2658V13.537H23.5253V25.2658C23.5253 27.6191 24.4601 29.876 26.1242 31.54C27.7882 33.204 30.0451 34.1389 32.3984 34.1389C34.7517 34.1389 37.0086 33.204 38.6726 31.54C40.3366 29.876 41.2715 27.6191 41.2715 25.2658V13.537H36.5453V25.2658ZM71.6952 14.7456C71.6952 12.3405 73.2855 11.5785 75.0273 11.5785C76.4322 11.5785 78.2864 12.6478 79.5004 13.9443L82.6065 10.282C81.0555 8.18414 77.9101 6.73462 75.3346 6.73462C70.1875 6.73462 66.4655 9.74871 66.4655 14.7456C66.4655 24.0166 77.7964 21.0742 77.7964 26.2632C77.7964 27.863 76.2427 29.276 74.4643 29.276C71.6586 29.276 70.7491 27.905 69.4607 26.4541L66.0121 30.0393C68.2182 32.7462 70.9386 34.1213 74.1963 34.1213C79.0863 34.1213 83.0193 31.0706 83.0193 26.3011C83.0193 16.0097 71.6871 19.2078 71.6871 14.7456M141.795 29.7416C138.992 29.7416 138.195 28.5289 138.195 26.672V18.4499H142.553V14.284H138.195V8.78777L133.384 10.9465V27.6938C133.384 31.9774 136.34 34.1361 140.393 34.1361C141.029 34.147 141.665 34.0955 142.29 33.9846L143.463 29.6644C142.934 29.701 142.327 29.7375 141.795 29.7375M54.6027 13.6736C52.2532 13.6736 50.6128 14.3558 49.0266 15.9109V6.89838H44.2761V23.6038C44.2761 29.8566 48.7965 34.1416 53.8773 34.1416C59.513 34.1416 64.4706 29.7808 64.4706 23.9096C64.4706 18.1115 59.9082 13.6777 54.6027 13.6777M54.573 29.3599C53.8649 29.3599 53.1639 29.2204 52.5098 28.9495C51.8557 28.6786 51.2613 28.2814 50.7607 27.7808C50.26 27.2802 49.8629 26.6858 49.592 26.0317C49.321 25.3776 49.1816 24.6765 49.1816 23.9685C49.1816 23.2605 49.321 22.5594 49.592 21.9053C49.8629 21.2512 50.26 20.6569 50.7607 20.1562C51.2613 19.6556 51.8557 19.2585 52.5098 18.9875C53.1639 18.7166 53.8649 18.5771 54.573 18.5771C56.0028 18.5771 57.3742 19.1451 58.3852 20.1562C59.3963 21.1673 59.9643 22.5386 59.9643 23.9685C59.9643 25.3984 59.3963 26.7697 58.3852 27.7808C57.3742 28.7919 56.0028 29.3599 54.573 29.3599ZM106.195 23.6606C106.195 17.7786 101.249 13.4287 95.6022 13.4287C90.5227 13.4287 86.0009 17.7123 86.0009 23.9665V40.6813H90.7515V31.6567C92.335 33.209 93.978 33.8939 96.3249 33.8939C101.63 33.8939 106.194 29.46 106.194 23.6606M101.697 23.6011C101.697 25.0309 101.129 26.4023 100.118 27.4133C99.1065 28.4244 97.7351 28.9924 96.3053 28.9924C94.8754 28.9924 93.5041 28.4244 92.493 27.4133C91.4819 26.4023 90.9139 25.0309 90.9139 23.6011C90.9139 22.1712 91.4819 20.7998 92.493 19.7888C93.5041 18.7777 94.8754 18.2097 96.3053 18.2097C97.7351 18.2097 99.1065 18.7777 100.118 19.7888C101.129 20.7998 101.697 22.1712 101.697 23.6011Z" fill="#B8B8D2"/>
<path d="M121.546 13.1986V8.42509C122.177 8.13028 122.711 7.66236 123.086 7.07581C123.461 6.48925 123.662 5.80819 123.665 5.1119V5.00227C123.665 2.97213 122.019 1.32636 119.989 1.32636H119.88C118.905 1.32636 117.97 1.71364 117.28 2.40301C116.591 3.09238 116.204 4.02736 116.204 5.00227V5.1119C116.207 5.80819 116.408 6.48925 116.783 7.07581C117.158 7.66236 117.692 8.13028 118.323 8.42509V13.1986C116.51 13.4762 114.803 14.2279 113.374 15.3777L100.282 5.18092C100.375 4.84392 100.424 4.49744 100.43 4.14961C100.431 3.33039 100.19 2.52909 99.7359 1.84708C99.2821 1.16506 98.6362 0.632972 97.8799 0.318109C97.1236 0.0032454 96.2909 -0.0802447 95.4871 0.0781991C94.6833 0.236643 93.9446 0.629903 93.3644 1.20823C92.7842 1.78657 92.3885 2.52399 92.2274 3.32722C92.0664 4.13046 92.1471 4.96342 92.4595 5.72074C92.7719 6.47807 93.3019 7.12573 93.9824 7.58182C94.663 8.0379 95.4635 8.28191 96.2827 8.28298C96.9994 8.27961 97.7027 8.08827 98.3223 7.72808L111.214 17.7597C110.056 19.5092 109.451 21.5671 109.48 23.665C109.508 25.7629 110.168 27.8035 111.373 29.521L107.453 33.4432C107.136 33.3419 106.805 33.2881 106.473 33.2835C105.8 33.2841 105.143 33.4839 104.584 33.8579C104.025 34.2318 103.59 34.763 103.333 35.3844C103.075 36.0057 103.008 36.6894 103.14 37.3489C103.271 38.0084 103.595 38.6142 104.07 39.0897C104.546 39.5652 105.152 39.889 105.811 40.0204C106.471 40.1517 107.154 40.0846 107.776 39.8275C108.397 39.5704 108.928 39.1349 109.302 38.576C109.676 38.0171 109.876 37.3599 109.877 36.6874C109.872 36.3547 109.818 36.0244 109.717 35.7075L113.596 31.8272C114.861 32.801 116.332 33.4724 117.896 33.7899C119.461 34.1073 121.077 34.0625 122.621 33.6588C124.166 33.2551 125.597 32.5033 126.806 31.4609C128.015 30.4184 128.97 29.1131 129.596 27.6449C130.223 26.1767 130.505 24.5846 130.421 22.9905C130.337 21.3963 129.89 19.8426 129.113 18.4481C128.336 17.0537 127.25 15.8556 125.938 14.9457C124.627 14.0358 123.124 13.4382 121.546 13.1986ZM119.938 28.8984C119.221 28.9181 118.507 28.794 117.839 28.5333C117.171 28.2726 116.562 27.8806 116.048 27.3805C115.534 26.8804 115.126 26.2824 114.847 25.6218C114.568 24.9611 114.424 24.2512 114.424 23.5341C114.424 22.817 114.568 22.1071 114.847 21.4464C115.126 20.7858 115.534 20.1878 116.048 19.6877C116.562 19.1876 117.171 18.7956 117.839 18.5349C118.507 18.2742 119.221 18.1501 119.938 18.1698C121.327 18.2184 122.644 18.8044 123.61 19.8043C124.576 20.8041 125.116 22.1399 125.116 23.5301C125.117 24.9204 124.578 26.2567 123.613 27.2575C122.648 28.2584 121.333 28.8456 119.943 28.8957" fill="#B8B8D2"/>
</svg>
