<svg width="140" height="42" viewBox="0 0 140 42" fill="none" xmlns="http://www.w3.org/2000/svg">
<path d="M41.9703 18.7824H29.1848L40.2571 12.3911L38.0614 8.58706L26.9877 14.9784L33.379 3.90893L29.575 1.71322L23.1823 12.7799V0H18.788V12.7813L12.3953 1.71322L8.58985 3.90893L14.9812 14.9756L3.91033 8.58706L1.71322 12.3911L12.7855 18.7824H0V23.1753H12.7841L1.71322 29.5666L3.90893 33.3706L14.9826 26.9793L8.58985 38.0488L12.3939 40.2445L18.788 29.1764V41.9563H23.1823V28.9023L29.6925 40.1746L33.2602 38.1159L26.7485 26.8408L38.0586 33.3692L40.2557 29.5652L29.1848 23.1739H41.9689V18.7824H41.9703ZM20.9851 26.9499C20.2007 26.9501 19.4239 26.7957 18.6992 26.4955C17.9745 26.1954 17.3159 25.7556 16.7613 25.2009C16.2066 24.6464 15.7665 23.988 15.4662 23.2632C15.1659 22.5385 15.0114 21.7619 15.0113 20.9775C15.0111 20.193 15.1655 19.4163 15.4657 18.6915C15.7658 17.9668 16.2056 17.3082 16.7603 16.7536C17.3148 16.1989 17.9732 15.7588 18.698 15.4585C19.4227 15.1583 20.1993 15.0037 20.9837 15.0036C22.5679 15.0034 24.0873 15.6325 25.2076 16.7526C26.328 17.8727 26.9575 19.3919 26.9576 20.9761C26.9578 22.5602 26.3287 24.0796 25.2086 25.1999C24.0885 26.3203 22.5693 26.9498 20.9851 26.9499Z" fill="#B8B8D2"/>
<path d="M53.2966 36.3245V5.63208H58.93V36.3245H53.2966ZM107.327 15.4666H112.705V18.012C113.849 15.9771 116.519 14.8737 118.806 14.8737C121.645 14.8737 123.931 16.1044 124.99 18.349C126.64 15.8037 128.845 14.8737 131.598 14.8737C135.453 14.8737 139.136 17.205 139.136 22.8006V36.3245H133.674V23.946C133.674 21.6985 132.572 20.0021 129.987 20.0021C127.572 20.0021 126.131 21.8692 126.131 24.1166V36.3259H120.543V23.946C120.543 21.6985 119.399 20.0021 116.856 20.0021C114.399 20.0021 112.958 21.8272 112.958 24.1166V36.3259H107.327V15.4666ZM71.6609 36.9287C65.3143 36.9287 60.7187 32.2198 60.7187 25.8956C60.7187 19.6721 65.3003 14.8527 71.6609 14.8527C78.0522 14.8527 82.6031 19.7168 82.6031 25.8956C82.6031 32.175 78.0047 36.9287 71.6609 36.9287ZM71.6609 19.9574C70.0867 19.9596 68.5777 20.5861 67.4649 21.6998C66.3522 22.8133 65.7266 24.3228 65.7255 25.897C65.7266 27.4712 66.3522 28.9806 67.4649 30.0941C68.5777 31.2078 70.0867 31.8344 71.6609 31.8366C73.2348 31.8339 74.7436 31.2072 75.856 30.0937C76.9684 28.9802 77.5938 27.4709 77.5949 25.897C77.5938 24.3231 76.9684 22.8137 75.856 21.7002C74.7436 20.5867 73.2348 19.96 71.6609 19.9574ZM94.6348 36.9287C88.2882 36.9287 83.6926 32.2198 83.6926 25.8956C83.6926 19.6721 88.2742 14.8527 94.6348 14.8527C101.026 14.8527 105.577 19.7168 105.577 25.8956C105.577 32.175 100.976 36.9287 94.6348 36.9287ZM94.6348 19.886C93.0425 19.8887 91.5162 20.5227 90.3908 21.6489C89.2652 22.7751 88.6322 24.3019 88.6308 25.8942C88.6322 27.4864 89.2652 29.0132 90.3908 30.1395C91.5162 31.2657 93.0425 31.8997 94.6348 31.9023C96.227 31.8997 97.7533 31.2657 98.8788 30.1395C100.004 29.0132 100.637 27.4864 100.639 25.8942C100.637 24.3019 100.004 22.7751 98.8788 21.6489C97.7533 20.5227 96.227 19.8887 94.6348 19.886Z" fill="#B8B8D2"/>
</svg>
