<svg width="49" height="49" viewBox="0 0 49 49" fill="none" xmlns="http://www.w3.org/2000/svg">
<path d="M24.5 8.16667L10.2084 14.2917L24.5 20.4167L38.7917 14.2917L24.5 8.16667Z" stroke="white" stroke-width="3" stroke-linejoin="round"/>
<path fill-rule="evenodd" clip-rule="evenodd" d="M17.6756 19.6678L9.6175 23.1213C9.06597 23.3577 8.70837 23.9 8.70837 24.5C8.70837 25.1 9.06597 25.6423 9.6175 25.8787L23.9092 32.0037C24.2865 32.1654 24.7136 32.1654 25.0909 32.0037L39.3826 25.8787C39.9341 25.6423 40.2917 25.1 40.2917 24.5C40.2917 23.9 39.9341 23.3577 39.3826 23.1213L31.3245 19.6678L27.5166 21.2998L34.9838 24.5L24.5 28.993L14.0163 24.5L21.4834 21.2998L17.6756 19.6678ZM22.7527 17.4919L23.9092 16.9963C24.2865 16.8346 24.7136 16.8346 25.0909 16.9963L26.2473 17.4919L24.5 18.2407L22.7527 17.4919Z" fill="white"/>
<path fill-rule="evenodd" clip-rule="evenodd" d="M17.6756 29.8762L9.6175 33.3296C9.06597 33.566 8.70837 34.1083 8.70837 34.7083C8.70837 35.3084 9.06597 35.8507 9.6175 36.0871L23.9092 42.2121C24.2865 42.3738 24.7136 42.3738 25.0909 42.2121L39.3826 36.0871C39.9341 35.8507 40.2917 35.3084 40.2917 34.7083C40.2917 34.1083 39.9341 33.566 39.3826 33.3296L31.3245 29.8762L27.5166 31.5081L34.9838 34.7083L24.5 39.2014L14.0163 34.7083L21.4835 31.5081L17.6756 29.8762ZM22.7527 27.7002L23.9092 27.2046C24.2865 27.0429 24.7136 27.0429 25.0909 27.2046L26.2473 27.7002L24.5 28.4491L22.7527 27.7002Z" fill="white"/>
</svg>
