<svg width="43" height="43" viewBox="0 0 43 43" fill="none" xmlns="http://www.w3.org/2000/svg">
<rect x="7.16663" y="28.6667" width="28.6667" height="7.16667" rx="3.58333" stroke="white" stroke-width="2"/>
<path d="M8.07612 19.2809L14.3333 28.6667H28.6666L34.9238 19.2809C35.3592 18.6278 35.5769 18.3013 35.5416 17.9455C35.5064 17.5898 35.2289 17.3123 34.6739 16.7573L21.5 3.58333L8.326 16.7573C7.77101 17.3123 7.49352 17.5898 7.45829 17.9455C7.42306 18.3013 7.64075 18.6278 8.07612 19.2809Z" stroke="white" stroke-width="2"/>
<path d="M25.875 19.7083C25.875 22.1246 23.9162 24.0833 21.5 24.0833C19.0838 24.0833 17.125 22.1246 17.125 19.7083C17.125 17.2921 19.0838 15.3333 21.5 15.3333C23.9162 15.3333 25.875 17.2921 25.875 19.7083Z" stroke="white" stroke-width="2"/>
<path d="M21.5 3.58333V16.125" stroke="white" stroke-width="2"/>
</svg>
